<?xml version="1.0" encoding="UTF-8" standalone="no"?><svg xmlns="http://www.w3.org/2000/svg" xmlns:xlink="http://www.w3.org/1999/xlink" clip-rule="evenodd" stroke-miterlimit="4.00" viewBox="0 0 1024 768"><desc>SVG generated by Keynote</desc><defs></defs><g transform="matrix(1.00, 0.00, -0.00, -1.00, 0.0, 768.0)"><g><clipPath id="clip-541"><path d="M 0.0 768.0 L 1024.0 768.0 L 1024.0 0.0 L 0.0 0.0 Z M 0.0 768.0 "></path></clipPath><g clip-path="url(#clip-541)"><image xlink:href="../../94B19213-1839-4ACA-AF95-0F4D5E1D33E8/assets/2CA05975C404A6B79EB2D17D5C3EEC1C.jpeg" width="1024.00" height="768.00" transform="matrix(1.00, 0.00, -0.00, -1.00, 0.0, 768.0)"></image></g></g><image xlink:href="../../19439D34-5DE9-480C-A41D-9F9003F77E3D/assets/493E1B85D9C899BC50C286E886B1F33F.png" width="1334.00" height="752.00" transform="matrix(1.00, 0.00, -0.00, -1.00, -154.8, 760.9)" opacity="0.70"></image><g><clipPath id="clip-542"><path d="M -135.0 751.0 L 1159.0 751.0 L 1159.0 39.0 L -135.0 39.0 Z M -134.8 750.9 "></path></clipPath><g clip-path="url(#clip-542)"><image xlink:href="../../6A631CD7-1475-4019-A88F-6793F000FD4F/assets/9AE49A3E65D69BE6668DB06111B2F25B.png" width="770.00" height="540.00" transform="matrix(1.32, 0.00, -0.00, -1.32, 4.0, 751.0)"></image></g></g><path d="M 14.8 0.0 L 16.8 0.0 L 77.4 0.0 " fill="none" stroke="#2FF900" stroke-width="4.00" transform="matrix(1.00, 0.00, 0.00, -1.00, 509.9, 448.0)"></path><path d="M 526.7 456.4 L 509.9 448.0 L 526.7 439.6 Z M 526.7 456.4 " fill="#2FF900"></path></g></svg>