<?xml version="1.0" encoding="UTF-8" standalone="no"?><svg xmlns="http://www.w3.org/2000/svg" xmlns:xlink="http://www.w3.org/1999/xlink" clip-rule="evenodd" stroke-miterlimit="4.00" viewBox="0 0 1024 768"><desc>SVG generated by Keynote</desc><defs></defs><g transform="matrix(1.00, 0.00, -0.00, -1.00, 0.0, 768.0)"><g><clipPath id="clip-545"><path d="M 0.0 768.0 L 1024.0 768.0 L 1024.0 0.0 L 0.0 0.0 Z M 0.0 768.0 "></path></clipPath><g clip-path="url(#clip-545)"><image xlink:href="../../94B19213-1839-4ACA-AF95-0F4D5E1D33E8/assets/2CA05975C404A6B79EB2D17D5C3EEC1C.jpeg" width="1024.00" height="768.00" transform="matrix(1.00, 0.00, -0.00, -1.00, 0.0, 768.0)"></image></g></g><image xlink:href="A33A3F4B24268C214F2E41C92A5D5EE3.png" width="1058.00" height="600.00" transform="matrix(1.00, 0.00, -0.00, -1.00, -17.0, 764.2)" opacity="0.70"></image><g><clipPath id="clip-546"><path d="M 3.0 754.0 L 1021.0 754.0 L 1021.0 194.0 L 3.0 194.0 Z M 3.0 754.2 "></path></clipPath><g clip-path="url(#clip-546)"><image xlink:href="DE646058F8786F1788BEA3981A19FB7D.png" width="960.00" height="324.00" transform="matrix(1.06, 0.00, -0.00, -1.06, 3.0, 646.0)"></image></g></g><image xlink:href="6D7F628C1F5311D95F5B331B7B4C68C8.png" width="761.00" height="41.00" transform="matrix(1.00, 0.00, -0.00, -1.00, 132.0, 247.0)"></image><text xml:space="preserve" font-family="HelveticaNeue-Medium" font-size="34.3" fill="#FEFFFE" transform="matrix(1.00, 0.00, -0.00, -1.00, 136.0, 220.0)">W</text><text xml:space="preserve" font-family="HelveticaNeue-Medium" font-size="34.3" fill="#FEFFFE" transform="matrix(1.00, 0.00, -0.00, -1.00, 167.8, 220.0)">e</text><text xml:space="preserve" font-family="HelveticaNeue-Medium" font-size="34.3" fill="#FEFFFE" transform="matrix(1.00, 0.00, -0.00, -1.00, 186.8, 220.0)"> </text><text xml:space="preserve" font-family="HelveticaNeue-Medium" font-size="34.3" fill="#FEFFFE" transform="matrix(1.00, 0.00, -0.00, -1.00, 196.4, 220.0)">n</text><text xml:space="preserve" font-family="HelveticaNeue-Medium" font-size="34.3" fill="#FEFFFE" transform="matrix(1.00, 0.00, -0.00, -1.00, 216.1, 220.0)">e</text><text xml:space="preserve" font-family="HelveticaNeue-Medium" font-size="34.3" fill="#FEFFFE" transform="matrix(1.00, 0.00, -0.00, -1.00, 235.1, 220.0)">e</text><text xml:space="preserve" font-family="HelveticaNeue-Medium" font-size="34.3" fill="#FEFFFE" transform="matrix(1.00, 0.00, -0.00, -1.00, 254.2, 220.0)">d</text><text xml:space="preserve" font-family="HelveticaNeue-Medium" font-size="34.3" fill="#FEFFFE" transform="matrix(1.00, 0.00, -0.00, -1.00, 275.2, 220.0)"> </text><text xml:space="preserve" font-family="HelveticaNeue-Medium" font-size="34.3" fill="#FEFFFE" transform="matrix(1.00, 0.00, -0.00, -1.00, 284.7, 220.0)">t</text><text xml:space="preserve" font-family="HelveticaNeue-Medium" font-size="34.3" fill="#FEFFFE" transform="matrix(1.00, 0.00, -0.00, -1.00, 296.1, 220.0)">o</text><text xml:space="preserve" font-family="HelveticaNeue-Medium" font-size="34.3" fill="#FEFFFE" transform="matrix(1.00, 0.00, -0.00, -1.00, 316.5, 220.0)"> </text><text xml:space="preserve" font-family="HelveticaNeue-Medium" font-size="34.3" fill="#FEFFFE" transform="matrix(1.00, 0.00, -0.00, -1.00, 326.0, 220.0)">c</text><text xml:space="preserve" font-family="HelveticaNeue-Medium" font-size="34.3" fill="#FEFFFE" transform="matrix(1.00, 0.00, -0.00, -1.00, 345.1, 220.0)">r</text><text xml:space="preserve" font-family="HelveticaNeue-Medium" font-size="34.3" fill="#FEFFFE" transform="matrix(1.00, 0.00, -0.00, -1.00, 356.5, 220.0)">e</text><text xml:space="preserve" font-family="HelveticaNeue-Medium" font-size="34.3" fill="#FEFFFE" transform="matrix(1.00, 0.00, -0.00, -1.00, 375.6, 220.0)">a</text><text xml:space="preserve" font-family="HelveticaNeue-Medium" font-size="34.3" fill="#FEFFFE" transform="matrix(1.00, 0.00, -0.00, -1.00, 394.7, 220.0)">t</text><text xml:space="preserve" font-family="HelveticaNeue-Medium" font-size="34.3" fill="#FEFFFE" transform="matrix(1.00, 0.00, -0.00, -1.00, 406.1, 220.0)">e</text><text xml:space="preserve" font-family="HelveticaNeue-Medium" font-size="34.3" fill="#FEFFFE" transform="matrix(1.00, 0.00, -0.00, -1.00, 425.1, 220.0)"> </text><text xml:space="preserve" font-family="HelveticaNeue-Medium" font-size="34.3" fill="#FEFFFE" transform="matrix(1.00, 0.00, -0.00, -1.00, 434.7, 220.0)">a</text><text xml:space="preserve" font-family="HelveticaNeue-Medium" font-size="34.3" fill="#FEFFFE" transform="matrix(1.00, 0.00, -0.00, -1.00, 453.8, 220.0)"> </text><text xml:space="preserve" font-family="HelveticaNeue-Medium" font-size="34.3" fill="#FEFFFE" transform="matrix(1.00, 0.00, -0.00, -1.00, 463.3, 220.0)">“</text><text xml:space="preserve" font-family="HelveticaNeue-Medium" font-size="34.3" fill="#FEFFFE" transform="matrix(1.00, 0.00, -0.00, -1.00, 478.5, 220.0)">s</text><text xml:space="preserve" font-family="HelveticaNeue-Medium" font-size="34.3" fill="#FEFFFE" transform="matrix(1.00, 0.00, -0.00, -1.00, 496.3, 220.0)">p</text><text xml:space="preserve" font-family="HelveticaNeue-Medium" font-size="34.3" fill="#FEFFFE" transform="matrix(1.00, 0.00, -0.00, -1.00, 517.3, 220.0)">y</text><text xml:space="preserve" font-family="HelveticaNeue-Medium" font-size="34.3" fill="#FEFFFE" transform="matrix(1.00, 0.00, -0.00, -1.00, 535.1, 220.0)">”</text><text xml:space="preserve" font-family="HelveticaNeue-Medium" font-size="34.3" fill="#FEFFFE" transform="matrix(1.00, 0.00, -0.00, -1.00, 550.3, 220.0)"> </text><text xml:space="preserve" font-family="HelveticaNeue-Medium" font-size="34.3" fill="#FEFFFE" transform="matrix(1.00, 0.00, -0.00, -1.00, 559.8, 220.0)">f</text><text xml:space="preserve" font-family="HelveticaNeue-Medium" font-size="34.3" fill="#FEFFFE" transform="matrix(1.00, 0.00, -0.00, -1.00, 570.6, 220.0)">o</text><text xml:space="preserve" font-family="HelveticaNeue-Medium" font-size="34.3" fill="#FEFFFE" transform="matrix(1.00, 0.00, -0.00, -1.00, 591.0, 220.0)">r</text><text xml:space="preserve" font-family="HelveticaNeue-Medium" font-size="34.3" fill="#FEFFFE" transform="matrix(1.00, 0.00, -0.00, -1.00, 603.1, 220.0)"> </text><text xml:space="preserve" font-family="HelveticaNeue-Medium" font-size="34.3" fill="#FEFFFE" transform="matrix(1.00, 0.00, -0.00, -1.00, 612.6, 220.0)">t</text><text xml:space="preserve" font-family="HelveticaNeue-Medium" font-size="34.3" fill="#FEFFFE" transform="matrix(1.00, 0.00, -0.00, -1.00, 624.0, 220.0)">h</text><text xml:space="preserve" font-family="HelveticaNeue-Medium" font-size="34.3" fill="#FEFFFE" transform="matrix(1.00, 0.00, -0.00, -1.00, 643.7, 220.0)">e</text><text xml:space="preserve" font-family="HelveticaNeue-Medium" font-size="34.3" fill="#FEFFFE" transform="matrix(1.00, 0.00, -0.00, -1.00, 662.8, 220.0)"> </text><text xml:space="preserve" font-family="HelveticaNeue-Medium" font-size="34.3" fill="#FEFFFE" transform="matrix(1.00, 0.00, -0.00, -1.00, 672.3, 220.0)">e</text><text xml:space="preserve" font-family="HelveticaNeue-Medium" font-size="34.3" fill="#FEFFFE" transform="matrix(1.00, 0.00, -0.00, -1.00, 691.4, 220.0)">v</text><text xml:space="preserve" font-family="HelveticaNeue-Medium" font-size="34.3" fill="#FEFFFE" transform="matrix(1.00, 0.00, -0.00, -1.00, 709.2, 220.0)">e</text><text xml:space="preserve" font-family="HelveticaNeue-Medium" font-size="34.3" fill="#FEFFFE" transform="matrix(1.00, 0.00, -0.00, -1.00, 728.3, 220.0)">n</text><text xml:space="preserve" font-family="HelveticaNeue-Medium" font-size="34.3" fill="#FEFFFE" transform="matrix(1.00, 0.00, -0.00, -1.00, 747.9, 220.0)">t</text><text xml:space="preserve" font-family="HelveticaNeue-Medium" font-size="34.3" fill="#FEFFFE" transform="matrix(1.00, 0.00, -0.00, -1.00, 759.4, 220.0)"> </text><text xml:space="preserve" font-family="HelveticaNeue-Medium" font-size="34.3" fill="#FEFFFE" transform="matrix(1.00, 0.00, -0.00, -1.00, 768.9, 220.0)">h</text><text xml:space="preserve" font-family="HelveticaNeue-Medium" font-size="34.3" fill="#FEFFFE" transform="matrix(1.00, 0.00, -0.00, -1.00, 788.6, 220.0)">a</text><text xml:space="preserve" font-family="HelveticaNeue-Medium" font-size="34.3" fill="#FEFFFE" transform="matrix(1.00, 0.00, -0.00, -1.00, 807.7, 220.0)">n</text><text xml:space="preserve" font-family="HelveticaNeue-Medium" font-size="34.3" fill="#FEFFFE" transform="matrix(1.00, 0.00, -0.00, -1.00, 827.4, 220.0)">d</text><text xml:space="preserve" font-family="HelveticaNeue-Medium" font-size="34.3" fill="#FEFFFE" transform="matrix(1.00, 0.00, -0.00, -1.00, 848.3, 220.0)">l</text><text xml:space="preserve" font-family="HelveticaNeue-Medium" font-size="34.3" fill="#FEFFFE" transform="matrix(1.00, 0.00, -0.00, -1.00, 856.6, 220.0)">e</text><text xml:space="preserve" font-family="HelveticaNeue-Medium" font-size="34.3" fill="#FEFFFE" transform="matrix(1.00, 0.00, -0.00, -1.00, 875.6, 220.0)">r</text><text xml:space="preserve" font-family="HelveticaNeue-Medium" font-size="34.3" fill="#FEFFFE" transform="matrix(1.00, 0.00, -0.00, -1.00, 887.7, 220.0)"> </text><image xlink:href="57BF25EC355C53FED4CD765C3B300D60.png" width="673.00" height="40.00" transform="matrix(1.00, 0.00, -0.00, -1.00, 175.0, 206.0)"></image><text xml:space="preserve" font-family="HelveticaNeue-Medium" font-size="34.3" fill="#FEFFFE" transform="matrix(1.00, 0.00, -0.00, -1.00, 179.0, 179.0)">f</text><text xml:space="preserve" font-family="HelveticaNeue-Medium" font-size="34.3" fill="#FEFFFE" transform="matrix(1.00, 0.00, -0.00, -1.00, 189.8, 179.0)">u</text><text xml:space="preserve" font-family="HelveticaNeue-Medium" font-size="34.3" fill="#FEFFFE" transform="matrix(1.00, 0.00, -0.00, -1.00, 209.5, 179.0)">n</text><text xml:space="preserve" font-family="HelveticaNeue-Medium" font-size="34.3" fill="#FEFFFE" transform="matrix(1.00, 0.00, -0.00, -1.00, 229.2, 179.0)">c</text><text xml:space="preserve" font-family="HelveticaNeue-Medium" font-size="34.3" fill="#FEFFFE" transform="matrix(1.00, 0.00, -0.00, -1.00, 248.3, 179.0)">t</text><text xml:space="preserve" font-family="HelveticaNeue-Medium" font-size="34.3" fill="#FEFFFE" transform="matrix(1.00, 0.00, -0.00, -1.00, 259.7, 179.0)">i</text><text xml:space="preserve" font-family="HelveticaNeue-Medium" font-size="34.3" fill="#FEFFFE" transform="matrix(1.00, 0.00, -0.00, -1.00, 267.9, 179.0)">o</text><text xml:space="preserve" font-family="HelveticaNeue-Medium" font-size="34.3" fill="#FEFFFE" transform="matrix(1.00, 0.00, -0.00, -1.00, 288.3, 179.0)">n</text><text xml:space="preserve" font-family="HelveticaNeue-Medium" font-size="34.3" fill="#FEFFFE" transform="matrix(1.00, 0.00, -0.00, -1.00, 308.0, 179.0)">,</text><text xml:space="preserve" font-family="HelveticaNeue-Medium" font-size="34.3" fill="#FEFFFE" transform="matrix(1.00, 0.00, -0.00, -1.00, 317.5, 179.0)"> </text><text xml:space="preserve" font-family="HelveticaNeue-Medium" font-size="34.3" fill="#FEFFFE" transform="matrix(1.00, 0.00, -0.00, -1.00, 327.0, 179.0)">a</text><text xml:space="preserve" font-family="HelveticaNeue-Medium" font-size="34.3" fill="#FEFFFE" transform="matrix(1.00, 0.00, -0.00, -1.00, 346.1, 179.0)">n</text><text xml:space="preserve" font-family="HelveticaNeue-Medium" font-size="34.3" fill="#FEFFFE" transform="matrix(1.00, 0.00, -0.00, -1.00, 365.8, 179.0)">d</text><text xml:space="preserve" font-family="HelveticaNeue-Medium" font-size="34.3" fill="#FEFFFE" transform="matrix(1.00, 0.00, -0.00, -1.00, 386.8, 179.0)"> </text><text xml:space="preserve" font-family="HelveticaNeue-Medium" font-size="34.3" fill="#FEFFFE" transform="matrix(1.00, 0.00, -0.00, -1.00, 396.3, 179.0)">p</text><text xml:space="preserve" font-family="HelveticaNeue-Medium" font-size="34.3" fill="#FEFFFE" transform="matrix(1.00, 0.00, -0.00, -1.00, 417.2, 179.0)">a</text><text xml:space="preserve" font-family="HelveticaNeue-Medium" font-size="34.3" fill="#FEFFFE" transform="matrix(1.00, 0.00, -0.00, -1.00, 436.3, 179.0)">s</text><text xml:space="preserve" font-family="HelveticaNeue-Medium" font-size="34.3" fill="#FEFFFE" transform="matrix(1.00, 0.00, -0.00, -1.00, 454.1, 179.0)">s</text><text xml:space="preserve" font-family="HelveticaNeue-Medium" font-size="34.3" fill="#FEFFFE" transform="matrix(1.00, 0.00, -0.00, -1.00, 471.9, 179.0)"> </text><text xml:space="preserve" font-family="HelveticaNeue-Medium" font-size="34.3" fill="#FEFFFE" transform="matrix(1.00, 0.00, -0.00, -1.00, 481.5, 179.0)">t</text><text xml:space="preserve" font-family="HelveticaNeue-Medium" font-size="34.3" fill="#FEFFFE" transform="matrix(1.00, 0.00, -0.00, -1.00, 492.9, 179.0)">h</text><text xml:space="preserve" font-family="HelveticaNeue-Medium" font-size="34.3" fill="#FEFFFE" transform="matrix(1.00, 0.00, -0.00, -1.00, 512.6, 179.0)">a</text><text xml:space="preserve" font-family="HelveticaNeue-Medium" font-size="34.3" fill="#FEFFFE" transform="matrix(1.00, 0.00, -0.00, -1.00, 531.6, 179.0)">t</text><text xml:space="preserve" font-family="HelveticaNeue-Medium" font-size="34.3" fill="#FEFFFE" transform="matrix(1.00, 0.00, -0.00, -1.00, 543.1, 179.0)"> </text><text xml:space="preserve" font-family="HelveticaNeue-Medium" font-size="34.3" fill="#FEFFFE" transform="matrix(1.00, 0.00, -0.00, -1.00, 552.6, 179.0)">t</text><text xml:space="preserve" font-family="HelveticaNeue-Medium" font-size="34.3" fill="#FEFFFE" transform="matrix(1.00, 0.00, -0.00, -1.00, 564.0, 179.0)">o</text><text xml:space="preserve" font-family="HelveticaNeue-Medium" font-size="34.3" fill="#FEFFFE" transform="matrix(1.00, 0.00, -0.00, -1.00, 584.4, 179.0)"> </text><text xml:space="preserve" font-family="HelveticaNeue-Medium" font-size="34.3" fill="#FEFFFE" transform="matrix(1.00, 0.00, -0.00, -1.00, 593.9, 179.0)">o</text><text xml:space="preserve" font-family="HelveticaNeue-Medium" font-size="34.3" fill="#FEFFFE" transform="matrix(1.00, 0.00, -0.00, -1.00, 614.2, 179.0)">u</text><text xml:space="preserve" font-family="HelveticaNeue-Medium" font-size="34.3" fill="#FEFFFE" transform="matrix(1.00, 0.00, -0.00, -1.00, 633.9, 179.0)">r</text><text xml:space="preserve" font-family="HelveticaNeue-Medium" font-size="34.3" fill="#FEFFFE" transform="matrix(1.00, 0.00, -0.00, -1.00, 646.0, 179.0)"> </text><text xml:space="preserve" font-family="HelveticaNeue-Medium" font-size="34.3" fill="#FEFFFE" transform="matrix(1.00, 0.00, -0.00, -1.00, 655.5, 179.0)">c</text><text xml:space="preserve" font-family="HelveticaNeue-Medium" font-size="34.3" fill="#FEFFFE" transform="matrix(1.00, 0.00, -0.00, -1.00, 674.6, 179.0)">o</text><text xml:space="preserve" font-family="HelveticaNeue-Medium" font-size="34.3" fill="#FEFFFE" transform="matrix(1.00, 0.00, -0.00, -1.00, 694.9, 179.0)">m</text><text xml:space="preserve" font-family="HelveticaNeue-Medium" font-size="34.3" fill="#FEFFFE" transform="matrix(1.00, 0.00, -0.00, -1.00, 724.8, 179.0)">p</text><text xml:space="preserve" font-family="HelveticaNeue-Medium" font-size="34.3" fill="#FEFFFE" transform="matrix(1.00, 0.00, -0.00, -1.00, 745.7, 179.0)">o</text><text xml:space="preserve" font-family="HelveticaNeue-Medium" font-size="34.3" fill="#FEFFFE" transform="matrix(1.00, 0.00, -0.00, -1.00, 766.1, 179.0)">n</text><text xml:space="preserve" font-family="HelveticaNeue-Medium" font-size="34.3" fill="#FEFFFE" transform="matrix(1.00, 0.00, -0.00, -1.00, 785.8, 179.0)">e</text><text xml:space="preserve" font-family="HelveticaNeue-Medium" font-size="34.3" fill="#FEFFFE" transform="matrix(1.00, 0.00, -0.00, -1.00, 804.8, 179.0)">n</text><text xml:space="preserve" font-family="HelveticaNeue-Medium" font-size="34.3" fill="#FEFFFE" transform="matrix(1.00, 0.00, -0.00, -1.00, 824.5, 179.0)">t</text><text xml:space="preserve" font-family="HelveticaNeue-Medium" font-size="34.3" fill="#FEFFFE" transform="matrix(1.00, 0.00, -0.00, -1.00, 835.9, 179.0)">.</text><text xml:space="preserve" font-family="HelveticaNeue-Medium" font-size="34.3" fill="#FEFFFE" transform="matrix(1.00, 0.00, -0.00, -1.00, 845.5, 179.0)"> </text><image xlink:href="C09AB1C528B34163246EE152B00CA017.png" width="844.00" height="41.00" transform="matrix(1.00, 0.00, -0.00, -1.00, 90.0, 124.0)"></image><text xml:space="preserve" font-family="HelveticaNeue-Medium" font-size="34.3" fill="#FEFFFE" transform="matrix(1.00, 0.00, -0.00, -1.00, 95.0, 97.0)">A</text><text xml:space="preserve" font-family="HelveticaNeue-Medium" font-size="34.3" fill="#FEFFFE" transform="matrix(1.00, 0.00, -0.00, -1.00, 117.9, 97.0)"> </text><text xml:space="preserve" font-family="HelveticaNeue-Medium" font-size="34.3" fill="#FEFFFE" transform="matrix(1.00, 0.00, -0.00, -1.00, 127.4, 97.0)">s</text><text xml:space="preserve" font-family="HelveticaNeue-Medium" font-size="34.3" fill="#FEFFFE" transform="matrix(1.00, 0.00, -0.00, -1.00, 145.2, 97.0)">p</text><text xml:space="preserve" font-family="HelveticaNeue-Medium" font-size="34.3" fill="#FEFFFE" transform="matrix(1.00, 0.00, -0.00, -1.00, 166.2, 97.0)">y</text><text xml:space="preserve" font-family="HelveticaNeue-Medium" font-size="34.3" fill="#FEFFFE" transform="matrix(1.00, 0.00, -0.00, -1.00, 184.0, 97.0)"> </text><text xml:space="preserve" font-family="HelveticaNeue-Medium" font-size="34.3" fill="#FEFFFE" transform="matrix(1.00, 0.00, -0.00, -1.00, 193.5, 97.0)">i</text><text xml:space="preserve" font-family="HelveticaNeue-Medium" font-size="34.3" fill="#FEFFFE" transform="matrix(1.00, 0.00, -0.00, -1.00, 201.8, 97.0)">s</text><text xml:space="preserve" font-family="HelveticaNeue-Medium" font-size="34.3" fill="#FEFFFE" transform="matrix(1.00, 0.00, -0.00, -1.00, 219.6, 97.0)"> </text><text xml:space="preserve" font-family="HelveticaNeue-Medium" font-size="34.3" fill="#FEFFFE" transform="matrix(1.00, 0.00, -0.00, -1.00, 229.1, 97.0)">a</text><text xml:space="preserve" font-family="HelveticaNeue-Medium" font-size="34.3" fill="#FEFFFE" transform="matrix(1.00, 0.00, -0.00, -1.00, 248.2, 97.0)"> </text><text xml:space="preserve" font-family="HelveticaNeue-Medium" font-size="34.3" fill="#FEFFFE" transform="matrix(1.00, 0.00, -0.00, -1.00, 257.7, 97.0)">m</text><text xml:space="preserve" font-family="HelveticaNeue-Medium" font-size="34.3" fill="#FEFFFE" transform="matrix(1.00, 0.00, -0.00, -1.00, 287.6, 97.0)">o</text><text xml:space="preserve" font-family="HelveticaNeue-Medium" font-size="34.3" fill="#FEFFFE" transform="matrix(1.00, 0.00, -0.00, -1.00, 307.9, 97.0)">c</text><text xml:space="preserve" font-family="HelveticaNeue-Medium" font-size="34.3" fill="#FEFFFE" transform="matrix(1.00, 0.00, -0.00, -1.00, 327.0, 97.0)">k</text><text xml:space="preserve" font-family="HelveticaNeue-Medium" font-size="34.3" fill="#FEFFFE" transform="matrix(1.00, 0.00, -0.00, -1.00, 345.4, 97.0)">e</text><text xml:space="preserve" font-family="HelveticaNeue-Medium" font-size="34.3" fill="#FEFFFE" transform="matrix(1.00, 0.00, -0.00, -1.00, 364.5, 97.0)">d</text><text xml:space="preserve" font-family="HelveticaNeue-Medium" font-size="34.3" fill="#FEFFFE" transform="matrix(1.00, 0.00, -0.00, -1.00, 385.4, 97.0)"> </text><text xml:space="preserve" font-family="HelveticaNeue-Medium" font-size="34.3" fill="#FEFFFE" transform="matrix(1.00, 0.00, -0.00, -1.00, 395.0, 97.0)">f</text><text xml:space="preserve" font-family="HelveticaNeue-Medium" font-size="34.3" fill="#FEFFFE" transform="matrix(1.00, 0.00, -0.00, -1.00, 405.8, 97.0)">u</text><text xml:space="preserve" font-family="HelveticaNeue-Medium" font-size="34.3" fill="#FEFFFE" transform="matrix(1.00, 0.00, -0.00, -1.00, 425.4, 97.0)">n</text><text xml:space="preserve" font-family="HelveticaNeue-Medium" font-size="34.3" fill="#FEFFFE" transform="matrix(1.00, 0.00, -0.00, -1.00, 445.1, 97.0)">c</text><text xml:space="preserve" font-family="HelveticaNeue-Medium" font-size="34.3" fill="#FEFFFE" transform="matrix(1.00, 0.00, -0.00, -1.00, 464.2, 97.0)">t</text><text xml:space="preserve" font-family="HelveticaNeue-Medium" font-size="34.3" fill="#FEFFFE" transform="matrix(1.00, 0.00, -0.00, -1.00, 475.6, 97.0)">i</text><text xml:space="preserve" font-family="HelveticaNeue-Medium" font-size="34.3" fill="#FEFFFE" transform="matrix(1.00, 0.00, -0.00, -1.00, 483.9, 97.0)">o</text><text xml:space="preserve" font-family="HelveticaNeue-Medium" font-size="34.3" fill="#FEFFFE" transform="matrix(1.00, 0.00, -0.00, -1.00, 504.2, 97.0)">n</text><text xml:space="preserve" font-family="HelveticaNeue-Medium" font-size="34.3" fill="#FEFFFE" transform="matrix(1.00, 0.00, -0.00, -1.00, 523.9, 97.0)"> </text><text xml:space="preserve" font-family="HelveticaNeue-Medium" font-size="34.3" fill="#FEFFFE" transform="matrix(1.00, 0.00, -0.00, -1.00, 533.5, 97.0)">t</text><text xml:space="preserve" font-family="HelveticaNeue-Medium" font-size="34.3" fill="#FEFFFE" transform="matrix(1.00, 0.00, -0.00, -1.00, 544.9, 97.0)">h</text><text xml:space="preserve" font-family="HelveticaNeue-Medium" font-size="34.3" fill="#FEFFFE" transform="matrix(1.00, 0.00, -0.00, -1.00, 564.6, 97.0)">a</text><text xml:space="preserve" font-family="HelveticaNeue-Medium" font-size="34.3" fill="#FEFFFE" transform="matrix(1.00, 0.00, -0.00, -1.00, 583.6, 97.0)">t</text><text xml:space="preserve" font-family="HelveticaNeue-Medium" font-size="34.3" fill="#FEFFFE" transform="matrix(1.00, 0.00, -0.00, -1.00, 595.1, 97.0)"> </text><text xml:space="preserve" font-family="HelveticaNeue-Medium" font-size="34.3" fill="#FEFFFE" transform="matrix(1.00, 0.00, -0.00, -1.00, 604.6, 97.0)">a</text><text xml:space="preserve" font-family="HelveticaNeue-Medium" font-size="34.3" fill="#FEFFFE" transform="matrix(1.00, 0.00, -0.00, -1.00, 623.7, 97.0)">l</text><text xml:space="preserve" font-family="HelveticaNeue-Medium" font-size="34.3" fill="#FEFFFE" transform="matrix(1.00, 0.00, -0.00, -1.00, 631.9, 97.0)">l</text><text xml:space="preserve" font-family="HelveticaNeue-Medium" font-size="34.3" fill="#FEFFFE" transform="matrix(1.00, 0.00, -0.00, -1.00, 640.2, 97.0)">o</text><text xml:space="preserve" font-family="HelveticaNeue-Medium" font-size="34.3" fill="#FEFFFE" transform="matrix(1.00, 0.00, -0.00, -1.00, 660.5, 97.0)">w</text><text xml:space="preserve" font-family="HelveticaNeue-Medium" font-size="34.3" fill="#FEFFFE" transform="matrix(1.00, 0.00, -0.00, -1.00, 687.2, 97.0)">s</text><text xml:space="preserve" font-family="HelveticaNeue-Medium" font-size="34.3" fill="#FEFFFE" transform="matrix(1.00, 0.00, -0.00, -1.00, 705.0, 97.0)"> </text><text xml:space="preserve" font-family="HelveticaNeue-Medium" font-size="34.3" fill="#FEFFFE" transform="matrix(1.00, 0.00, -0.00, -1.00, 714.6, 97.0)">u</text><text xml:space="preserve" font-family="HelveticaNeue-Medium" font-size="34.3" fill="#FEFFFE" transform="matrix(1.00, 0.00, -0.00, -1.00, 734.2, 97.0)">s</text><text xml:space="preserve" font-family="HelveticaNeue-Medium" font-size="34.3" fill="#FEFFFE" transform="matrix(1.00, 0.00, -0.00, -1.00, 752.1, 97.0)"> </text><text xml:space="preserve" font-family="HelveticaNeue-Medium" font-size="34.3" fill="#FEFFFE" transform="matrix(1.00, 0.00, -0.00, -1.00, 761.6, 97.0)">t</text><text xml:space="preserve" font-family="HelveticaNeue-Medium" font-size="34.3" fill="#FEFFFE" transform="matrix(1.00, 0.00, -0.00, -1.00, 773.0, 97.0)">o</text><text xml:space="preserve" font-family="HelveticaNeue-Medium" font-size="34.3" fill="#FEFFFE" transform="matrix(1.00, 0.00, -0.00, -1.00, 793.3, 97.0)"> </text><text xml:space="preserve" font-family="HelveticaNeue-Medium" font-size="34.3" fill="#FEFFFE" transform="matrix(1.00, 0.00, -0.00, -1.00, 802.9, 97.0)">t</text><text xml:space="preserve" font-family="HelveticaNeue-Medium" font-size="34.3" fill="#FEFFFE" transform="matrix(1.00, 0.00, -0.00, -1.00, 814.3, 97.0)">r</text><text xml:space="preserve" font-family="HelveticaNeue-Medium" font-size="34.3" fill="#FEFFFE" transform="matrix(1.00, 0.00, -0.00, -1.00, 826.4, 97.0)">a</text><text xml:space="preserve" font-family="HelveticaNeue-Medium" font-size="34.3" fill="#FEFFFE" transform="matrix(1.00, 0.00, -0.00, -1.00, 845.4, 97.0)">c</text><text xml:space="preserve" font-family="HelveticaNeue-Medium" font-size="34.3" fill="#FEFFFE" transform="matrix(1.00, 0.00, -0.00, -1.00, 864.5, 97.0)">k</text><text xml:space="preserve" font-family="HelveticaNeue-Medium" font-size="34.3" fill="#FEFFFE" transform="matrix(1.00, 0.00, -0.00, -1.00, 882.9, 97.0)"> </text><text xml:space="preserve" font-family="HelveticaNeue-Medium" font-size="34.3" fill="#FEFFFE" transform="matrix(1.00, 0.00, -0.00, -1.00, 892.5, 97.0)">i</text><text xml:space="preserve" font-family="HelveticaNeue-Medium" font-size="34.3" fill="#FEFFFE" transform="matrix(1.00, 0.00, -0.00, -1.00, 900.7, 97.0)">t</text><text xml:space="preserve" font-family="HelveticaNeue-Medium" font-size="34.3" fill="#FEFFFE" transform="matrix(1.00, 0.00, -0.00, -1.00, 912.2, 97.0)">s</text><text xml:space="preserve" font-family="HelveticaNeue-Medium" font-size="34.3" fill="#FEFFFE" transform="matrix(1.00, 0.00, -0.00, -1.00, 930.0, 97.0)"> </text><image xlink:href="E3E3FC96D606E2E174BC1F8FFB96B089.png" width="335.00" height="41.00" transform="matrix(1.00, 0.00, -0.00, -1.00, 344.0, 83.0)"></image><text xml:space="preserve" font-family="HelveticaNeue-Medium" font-size="34.3" fill="#FEFFFE" transform="matrix(1.00, 0.00, -0.00, -1.00, 347.0, 56.0)">c</text><text xml:space="preserve" font-family="HelveticaNeue-Medium" font-size="34.3" fill="#FEFFFE" transform="matrix(1.00, 0.00, -0.00, -1.00, 366.1, 56.0)">a</text><text xml:space="preserve" font-family="HelveticaNeue-Medium" font-size="34.3" fill="#FEFFFE" transform="matrix(1.00, 0.00, -0.00, -1.00, 385.1, 56.0)">l</text><text xml:space="preserve" font-family="HelveticaNeue-Medium" font-size="34.3" fill="#FEFFFE" transform="matrix(1.00, 0.00, -0.00, -1.00, 393.4, 56.0)">l</text><text xml:space="preserve" font-family="HelveticaNeue-Medium" font-size="34.3" fill="#FEFFFE" transform="matrix(1.00, 0.00, -0.00, -1.00, 401.7, 56.0)">s</text><text xml:space="preserve" font-family="HelveticaNeue-Medium" font-size="34.3" fill="#FEFFFE" transform="matrix(1.00, 0.00, -0.00, -1.00, 419.5, 56.0)"> </text><text xml:space="preserve" font-family="HelveticaNeue-Medium" font-size="34.3" fill="#FEFFFE" transform="matrix(1.00, 0.00, -0.00, -1.00, 429.0, 56.0)">a</text><text xml:space="preserve" font-family="HelveticaNeue-Medium" font-size="34.3" fill="#FEFFFE" transform="matrix(1.00, 0.00, -0.00, -1.00, 448.1, 56.0)">n</text><text xml:space="preserve" font-family="HelveticaNeue-Medium" font-size="34.3" fill="#FEFFFE" transform="matrix(1.00, 0.00, -0.00, -1.00, 467.8, 56.0)">d</text><text xml:space="preserve" font-family="HelveticaNeue-Medium" font-size="34.3" fill="#FEFFFE" transform="matrix(1.00, 0.00, -0.00, -1.00, 488.7, 56.0)"> </text><text xml:space="preserve" font-family="HelveticaNeue-Medium" font-size="34.3" fill="#FEFFFE" transform="matrix(1.00, 0.00, -0.00, -1.00, 498.3, 56.0)">a</text><text xml:space="preserve" font-family="HelveticaNeue-Medium" font-size="34.3" fill="#FEFFFE" transform="matrix(1.00, 0.00, -0.00, -1.00, 517.3, 56.0)">r</text><text xml:space="preserve" font-family="HelveticaNeue-Medium" font-size="34.3" fill="#FEFFFE" transform="matrix(1.00, 0.00, -0.00, -1.00, 529.4, 56.0)">g</text><text xml:space="preserve" font-family="HelveticaNeue-Medium" font-size="34.3" fill="#FEFFFE" transform="matrix(1.00, 0.00, -0.00, -1.00, 549.7, 56.0)">u</text><text xml:space="preserve" font-family="HelveticaNeue-Medium" font-size="34.3" fill="#FEFFFE" transform="matrix(1.00, 0.00, -0.00, -1.00, 569.4, 56.0)">m</text><text xml:space="preserve" font-family="HelveticaNeue-Medium" font-size="34.3" fill="#FEFFFE" transform="matrix(1.00, 0.00, -0.00, -1.00, 599.3, 56.0)">e</text><text xml:space="preserve" font-family="HelveticaNeue-Medium" font-size="34.3" fill="#FEFFFE" transform="matrix(1.00, 0.00, -0.00, -1.00, 618.3, 56.0)">n</text><text xml:space="preserve" font-family="HelveticaNeue-Medium" font-size="34.3" fill="#FEFFFE" transform="matrix(1.00, 0.00, -0.00, -1.00, 638.0, 56.0)">t</text><text xml:space="preserve" font-family="HelveticaNeue-Medium" font-size="34.3" fill="#FEFFFE" transform="matrix(1.00, 0.00, -0.00, -1.00, 649.5, 56.0)">s</text><text xml:space="preserve" font-family="HelveticaNeue-Medium" font-size="34.3" fill="#FEFFFE" transform="matrix(1.00, 0.00, -0.00, -1.00, 667.3, 56.0)">.</text></g></svg>