<?xml version="1.0" encoding="UTF-8" standalone="no"?><svg xmlns="http://www.w3.org/2000/svg" xmlns:xlink="http://www.w3.org/1999/xlink" clip-rule="evenodd" stroke-miterlimit="4.00" viewBox="0 0 899 140"><desc>SVG generated by Keynote</desc><defs></defs><g transform="matrix(1.00, 0.00, -0.00, -1.00, 0.0, 140.0)"><image xlink:href="../../795ED4A5-3224-45CA-BA92-3B204FB36FA0/assets/D461C69BC2B87951A9DA82389DF9D13A.png" width="891.00" height="61.00" transform="matrix(1.00, 0.00, -0.00, -1.00, 1.0, 138.0)"></image><text xml:space="preserve" font-family="HelveticaNeue-Bold" font-weight="bold" font-size="60.2" fill="#FEFFFE" transform="matrix(1.00, 0.00, -0.00, -1.00, 1.0, 93.0)">F</text><text xml:space="preserve" font-family="HelveticaNeue-Bold" font-weight="bold" font-size="60.2" fill="#FEFFFE" transform="matrix(1.00, 0.00, -0.00, -1.00, 36.7, 93.0)">i</text><text xml:space="preserve" font-family="HelveticaNeue-Bold" font-weight="bold" font-size="60.2" fill="#FEFFFE" transform="matrix(1.00, 0.00, -0.00, -1.00, 52.2, 93.0)">n</text><text xml:space="preserve" font-family="HelveticaNeue-Bold" font-weight="bold" font-size="60.2" fill="#FEFFFE" transform="matrix(1.00, 0.00, -0.00, -1.00, 87.9, 93.0)">e</text><text xml:space="preserve" font-family="HelveticaNeue-Bold" font-weight="bold" font-size="60.2" fill="#FEFFFE" transform="matrix(1.00, 0.00, -0.00, -1.00, 122.4, 93.0)">,</text><text xml:space="preserve" font-family="HelveticaNeue-Bold" font-weight="bold" font-size="60.2" fill="#FEFFFE" transform="matrix(1.00, 0.00, -0.00, -1.00, 139.1, 93.0)"> </text><text xml:space="preserve" font-family="HelveticaNeue-Bold" font-weight="bold" font-size="60.2" fill="#FEFFFE" transform="matrix(1.00, 0.00, -0.00, -1.00, 155.9, 93.0)">t</text><text xml:space="preserve" font-family="HelveticaNeue-Bold" font-weight="bold" font-size="60.2" fill="#FEFFFE" transform="matrix(1.00, 0.00, -0.00, -1.00, 177.0, 93.0)">h</text><text xml:space="preserve" font-family="HelveticaNeue-Bold" font-weight="bold" font-size="60.2" fill="#FEFFFE" transform="matrix(1.00, 0.00, -0.00, -1.00, 212.7, 93.0)">e</text><text xml:space="preserve" font-family="HelveticaNeue-Bold" font-weight="bold" font-size="60.2" fill="#FEFFFE" transform="matrix(1.00, 0.00, -0.00, -1.00, 247.2, 93.0)">s</text><text xml:space="preserve" font-family="HelveticaNeue-Bold" font-weight="bold" font-size="60.2" fill="#FEFFFE" transform="matrix(1.00, 0.00, -0.00, -1.00, 279.5, 93.0)">e</text><text xml:space="preserve" font-family="HelveticaNeue-Bold" font-weight="bold" font-size="60.2" fill="#FEFFFE" transform="matrix(1.00, 0.00, -0.00, -1.00, 314.1, 93.0)"> </text><text xml:space="preserve" font-family="HelveticaNeue-Bold" font-weight="bold" font-size="60.2" fill="#FEFFFE" transform="matrix(1.00, 0.00, -0.00, -1.00, 330.8, 93.0)">t</text><text xml:space="preserve" font-family="HelveticaNeue-Bold" font-weight="bold" font-size="60.2" fill="#FEFFFE" transform="matrix(1.00, 0.00, -0.00, -1.00, 352.0, 93.0)">o</text><text xml:space="preserve" font-family="HelveticaNeue-Bold" font-weight="bold" font-size="60.2" fill="#FEFFFE" transform="matrix(1.00, 0.00, -0.00, -1.00, 388.7, 93.0)">o</text><text xml:space="preserve" font-family="HelveticaNeue-Bold" font-weight="bold" font-size="60.2" fill="#FEFFFE" transform="matrix(1.00, 0.00, -0.00, -1.00, 425.5, 93.0)">l</text><text xml:space="preserve" font-family="HelveticaNeue-Bold" font-weight="bold" font-size="60.2" fill="#FEFFFE" transform="matrix(1.00, 0.00, -0.00, -1.00, 441.0, 93.0)">s</text><text xml:space="preserve" font-family="HelveticaNeue-Bold" font-weight="bold" font-size="60.2" fill="#FEFFFE" transform="matrix(1.00, 0.00, -0.00, -1.00, 473.3, 93.0)"> </text><text xml:space="preserve" font-family="HelveticaNeue-Bold" font-weight="bold" font-size="60.2" fill="#FEFFFE" transform="matrix(1.00, 0.00, -0.00, -1.00, 490.0, 93.0)">a</text><text xml:space="preserve" font-family="HelveticaNeue-Bold" font-weight="bold" font-size="60.2" fill="#FEFFFE" transform="matrix(1.00, 0.00, -0.00, -1.00, 524.6, 93.0)">r</text><text xml:space="preserve" font-family="HelveticaNeue-Bold" font-weight="bold" font-size="60.2" fill="#FEFFFE" transform="matrix(1.00, 0.00, -0.00, -1.00, 546.9, 93.0)">e</text><text xml:space="preserve" font-family="HelveticaNeue-Bold" font-weight="bold" font-size="60.2" fill="#FEFFFE" transform="matrix(1.00, 0.00, -0.00, -1.00, 581.4, 93.0)"> </text><text xml:space="preserve" font-family="HelveticaNeue-Bold" font-weight="bold" font-size="60.2" fill="#FEFFFE" transform="matrix(1.00, 0.00, -0.00, -1.00, 598.1, 93.0)">a</text><text xml:space="preserve" font-family="HelveticaNeue-Bold" font-weight="bold" font-size="60.2" fill="#FEFFFE" transform="matrix(1.00, 0.00, -0.00, -1.00, 632.7, 93.0)">w</text><text xml:space="preserve" font-family="HelveticaNeue-Bold" font-weight="bold" font-size="60.2" fill="#FEFFFE" transform="matrix(1.00, 0.00, -0.00, -1.00, 681.7, 93.0)">e</text><text xml:space="preserve" font-family="HelveticaNeue-Bold" font-weight="bold" font-size="60.2" fill="#FEFFFE" transform="matrix(1.00, 0.00, -0.00, -1.00, 716.2, 93.0)">s</text><text xml:space="preserve" font-family="HelveticaNeue-Bold" font-weight="bold" font-size="60.2" fill="#FEFFFE" transform="matrix(1.00, 0.00, -0.00, -1.00, 748.5, 93.0)">o</text><text xml:space="preserve" font-family="HelveticaNeue-Bold" font-weight="bold" font-size="60.2" fill="#FEFFFE" transform="matrix(1.00, 0.00, -0.00, -1.00, 785.2, 93.0)">m</text><text xml:space="preserve" font-family="HelveticaNeue-Bold" font-weight="bold" font-size="60.2" fill="#FEFFFE" transform="matrix(1.00, 0.00, -0.00, -1.00, 839.8, 93.0)">e</text><text xml:space="preserve" font-family="HelveticaNeue-Bold" font-weight="bold" font-size="60.2" fill="#FEFFFE" transform="matrix(1.00, 0.00, -0.00, -1.00, 874.3, 93.0)">.</text><text xml:space="preserve" font-family="HelveticaNeue-Bold" font-weight="bold" font-size="60.2" fill="#FEFFFE" transform="matrix(1.00, 0.00, -0.00, -1.00, 891.0, 93.0)"> </text><image xlink:href="../../795ED4A5-3224-45CA-BA92-3B204FB36FA0/assets/83393294481BE2F260DD66233A116F34.png" width="747.00" height="64.00" transform="matrix(1.00, 0.00, -0.00, -1.00, 74.0, 65.0)"></image><text xml:space="preserve" font-family="HelveticaNeue-Bold" font-weight="bold" font-size="60.2" fill="#FEFFFE" transform="matrix(1.00, 0.00, -0.00, -1.00, 74.0, 19.0)">H</text><text xml:space="preserve" font-family="HelveticaNeue-Bold" font-weight="bold" font-size="60.2" fill="#FEFFFE" transform="matrix(1.00, 0.00, -0.00, -1.00, 118.6, 19.0)">o</text><text xml:space="preserve" font-family="HelveticaNeue-Bold" font-weight="bold" font-size="60.2" fill="#FEFFFE" transform="matrix(1.00, 0.00, -0.00, -1.00, 155.3, 19.0)">w</text><text xml:space="preserve" font-family="HelveticaNeue-Bold" font-weight="bold" font-size="60.2" fill="#FEFFFE" transform="matrix(1.00, 0.00, -0.00, -1.00, 204.3, 19.0)"> </text><text xml:space="preserve" font-family="HelveticaNeue-Bold" font-weight="bold" font-size="60.2" fill="#FEFFFE" transform="matrix(1.00, 0.00, -0.00, -1.00, 221.0, 19.0)">p</text><text xml:space="preserve" font-family="HelveticaNeue-Bold" font-weight="bold" font-size="60.2" fill="#FEFFFE" transform="matrix(1.00, 0.00, -0.00, -1.00, 257.8, 19.0)">a</text><text xml:space="preserve" font-family="HelveticaNeue-Bold" font-weight="bold" font-size="60.2" fill="#FEFFFE" transform="matrix(1.00, 0.00, -0.00, -1.00, 292.3, 19.0)">i</text><text xml:space="preserve" font-family="HelveticaNeue-Bold" font-weight="bold" font-size="60.2" fill="#FEFFFE" transform="matrix(1.00, 0.00, -0.00, -1.00, 307.8, 19.0)">n</text><text xml:space="preserve" font-family="HelveticaNeue-Bold" font-weight="bold" font-size="60.2" fill="#FEFFFE" transform="matrix(1.00, 0.00, -0.00, -1.00, 343.5, 19.0)">f</text><text xml:space="preserve" font-family="HelveticaNeue-Bold" font-weight="bold" font-size="60.2" fill="#FEFFFE" transform="matrix(1.00, 0.00, -0.00, -1.00, 363.6, 19.0)">u</text><text xml:space="preserve" font-family="HelveticaNeue-Bold" font-weight="bold" font-size="60.2" fill="#FEFFFE" transform="matrix(1.00, 0.00, -0.00, -1.00, 399.2, 19.0)">l</text><text xml:space="preserve" font-family="HelveticaNeue-Bold" font-weight="bold" font-size="60.2" fill="#FEFFFE" transform="matrix(1.00, 0.00, -0.00, -1.00, 414.7, 19.0)"> </text><text xml:space="preserve" font-family="HelveticaNeue-Bold" font-weight="bold" font-size="60.2" fill="#FEFFFE" transform="matrix(1.00, 0.00, -0.00, -1.00, 431.5, 19.0)">i</text><text xml:space="preserve" font-family="HelveticaNeue-Bold" font-weight="bold" font-size="60.2" fill="#FEFFFE" transform="matrix(1.00, 0.00, -0.00, -1.00, 447.0, 19.0)">s</text><text xml:space="preserve" font-family="HelveticaNeue-Bold" font-weight="bold" font-size="60.2" fill="#FEFFFE" transform="matrix(1.00, 0.00, -0.00, -1.00, 479.3, 19.0)"> </text><text xml:space="preserve" font-family="HelveticaNeue-Bold" font-weight="bold" font-size="60.2" fill="#FEFFFE" transform="matrix(1.00, 0.00, -0.00, -1.00, 496.0, 19.0)">t</text><text xml:space="preserve" font-family="HelveticaNeue-Bold" font-weight="bold" font-size="60.2" fill="#FEFFFE" transform="matrix(1.00, 0.00, -0.00, -1.00, 517.2, 19.0)">h</text><text xml:space="preserve" font-family="HelveticaNeue-Bold" font-weight="bold" font-size="60.2" fill="#FEFFFE" transform="matrix(1.00, 0.00, -0.00, -1.00, 552.9, 19.0)">e</text><text xml:space="preserve" font-family="HelveticaNeue-Bold" font-weight="bold" font-size="60.2" fill="#FEFFFE" transform="matrix(1.00, 0.00, -0.00, -1.00, 587.4, 19.0)"> </text><text xml:space="preserve" font-family="HelveticaNeue-Bold" font-weight="bold" font-size="60.2" fill="#FEFFFE" transform="matrix(1.00, 0.00, -0.00, -1.00, 604.1, 19.0)">c</text><text xml:space="preserve" font-family="HelveticaNeue-Bold" font-weight="bold" font-size="60.2" fill="#FEFFFE" transform="matrix(1.00, 0.00, -0.00, -1.00, 638.7, 19.0)">o</text><text xml:space="preserve" font-family="HelveticaNeue-Bold" font-weight="bold" font-size="60.2" fill="#FEFFFE" transform="matrix(1.00, 0.00, -0.00, -1.00, 675.4, 19.0)">n</text><text xml:space="preserve" font-family="HelveticaNeue-Bold" font-weight="bold" font-size="60.2" fill="#FEFFFE" transform="matrix(1.00, 0.00, -0.00, -1.00, 711.1, 19.0)">ï¬</text><text xml:space="preserve" font-family="HelveticaNeue-Bold" font-weight="bold" font-size="60.2" fill="#FEFFFE" transform="matrix(1.00, 0.00, -0.00, -1.00, 747.9, 19.0)">g</text><text xml:space="preserve" font-family="HelveticaNeue-Bold" font-weight="bold" font-size="60.2" fill="#FEFFFE" transform="matrix(1.00, 0.00, -0.00, -1.00, 784.6, 19.0)">?</text></g></svg>