<?xml version="1.0" encoding="UTF-8" standalone="no"?><svg xmlns="http://www.w3.org/2000/svg" xmlns:xlink="http://www.w3.org/1999/xlink" clip-rule="evenodd" stroke-miterlimit="4.00" viewBox="0 0 1024 768"><desc>SVG generated by Keynote</desc><defs></defs><g transform="matrix(1.00, 0.00, -0.00, -1.00, 0.0, 768.0)"><g><clipPath id="clip-567"><path d="M 0.0 768.0 L 1024.0 768.0 L 1024.0 0.0 L 0.0 0.0 Z M 0.0 768.0 "></path></clipPath><g clip-path="url(#clip-567)"><image xlink:href="../../94B19213-1839-4ACA-AF95-0F4D5E1D33E8/assets/2CA05975C404A6B79EB2D17D5C3EEC1C.jpeg" width="1024.00" height="768.00" transform="matrix(1.00, 0.00, -0.00, -1.00, 0.0, 768.0)"></image></g></g><image xlink:href="3D33408085297A9B8D6FE9751653A4D9.png" width="1058.00" height="600.00" transform="matrix(1.00, 0.00, -0.00, -1.00, -16.9, 739.4)" opacity="0.70"></image><g><clipPath id="clip-568"><path d="M 3.0 729.0 L 1021.0 729.0 L 1021.0 169.0 L 3.0 169.0 Z M 3.1 729.4 "></path></clipPath><g clip-path="url(#clip-568)"><image xlink:href="0DEC6972789F79343B762603CCAD3AED.png" width="960.00" height="182.00" transform="matrix(1.06, 0.00, -0.00, -1.07, 3.0, 546.0)"></image></g></g><image xlink:href="23A366AB895C60745D55F3C118D24871.png" width="819.00" height="45.00" transform="matrix(1.00, 0.00, -0.00, -1.00, 102.0, 187.0)"></image><text xml:space="preserve" font-family="HelveticaNeue-Bold" font-weight="bold" font-size="39.0" fill="#FEFFFE" transform="matrix(1.00, 0.00, -0.00, -1.00, 106.0, 156.0)">W</text><text xml:space="preserve" font-family="HelveticaNeue-Bold" font-weight="bold" font-size="39.0" fill="#FEFFFE" transform="matrix(1.00, 0.00, -0.00, -1.00, 140.6, 156.0)">e</text><text xml:space="preserve" font-family="HelveticaNeue-Bold" font-weight="bold" font-size="39.0" fill="#FEFFFE" transform="matrix(1.00, 0.00, -0.00, -1.00, 163.0, 156.0)"> </text><text xml:space="preserve" font-family="HelveticaNeue-Bold" font-weight="bold" font-size="39.0" fill="#FEFFFE" transform="matrix(1.00, 0.00, -0.00, -1.00, 173.9, 156.0)">c</text><text xml:space="preserve" font-family="HelveticaNeue-Bold" font-weight="bold" font-size="39.0" fill="#FEFFFE" transform="matrix(1.00, 0.00, -0.00, -1.00, 196.3, 156.0)">o</text><text xml:space="preserve" font-family="HelveticaNeue-Bold" font-weight="bold" font-size="39.0" fill="#FEFFFE" transform="matrix(1.00, 0.00, -0.00, -1.00, 220.2, 156.0)">u</text><text xml:space="preserve" font-family="HelveticaNeue-Bold" font-weight="bold" font-size="39.0" fill="#FEFFFE" transform="matrix(1.00, 0.00, -0.00, -1.00, 243.3, 156.0)">l</text><text xml:space="preserve" font-family="HelveticaNeue-Bold" font-weight="bold" font-size="39.0" fill="#FEFFFE" transform="matrix(1.00, 0.00, -0.00, -1.00, 253.4, 156.0)">d</text><text xml:space="preserve" font-family="HelveticaNeue-Bold" font-weight="bold" font-size="39.0" fill="#FEFFFE" transform="matrix(1.00, 0.00, -0.00, -1.00, 277.2, 156.0)"> </text><text xml:space="preserve" font-family="HelveticaNeue-Bold" font-weight="bold" font-size="39.0" fill="#FEFFFE" transform="matrix(1.00, 0.00, -0.00, -1.00, 288.1, 156.0)">d</text><text xml:space="preserve" font-family="HelveticaNeue-Bold" font-weight="bold" font-size="39.0" fill="#FEFFFE" transform="matrix(1.00, 0.00, -0.00, -1.00, 311.9, 156.0)">i</text><text xml:space="preserve" font-family="HelveticaNeue-Bold" font-weight="bold" font-size="39.0" fill="#FEFFFE" transform="matrix(1.00, 0.00, -0.00, -1.00, 322.0, 156.0)">r</text><text xml:space="preserve" font-family="HelveticaNeue-Bold" font-weight="bold" font-size="39.0" fill="#FEFFFE" transform="matrix(1.00, 0.00, -0.00, -1.00, 336.5, 156.0)">e</text><text xml:space="preserve" font-family="HelveticaNeue-Bold" font-weight="bold" font-size="39.0" fill="#FEFFFE" transform="matrix(1.00, 0.00, -0.00, -1.00, 358.9, 156.0)">c</text><text xml:space="preserve" font-family="HelveticaNeue-Bold" font-weight="bold" font-size="39.0" fill="#FEFFFE" transform="matrix(1.00, 0.00, -0.00, -1.00, 381.3, 156.0)">t</text><text xml:space="preserve" font-family="HelveticaNeue-Bold" font-weight="bold" font-size="39.0" fill="#FEFFFE" transform="matrix(1.00, 0.00, -0.00, -1.00, 395.1, 156.0)">l</text><text xml:space="preserve" font-family="HelveticaNeue-Bold" font-weight="bold" font-size="39.0" fill="#FEFFFE" transform="matrix(1.00, 0.00, -0.00, -1.00, 405.1, 156.0)">y</text><text xml:space="preserve" font-family="HelveticaNeue-Bold" font-weight="bold" font-size="39.0" fill="#FEFFFE" transform="matrix(1.00, 0.00, -0.00, -1.00, 425.4, 156.0)"> </text><text xml:space="preserve" font-family="HelveticaNeue-Bold" font-weight="bold" font-size="39.0" fill="#FEFFFE" transform="matrix(1.00, 0.00, -0.00, -1.00, 436.2, 156.0)">a</text><text xml:space="preserve" font-family="HelveticaNeue-Bold" font-weight="bold" font-size="39.0" fill="#FEFFFE" transform="matrix(1.00, 0.00, -0.00, -1.00, 458.6, 156.0)">c</text><text xml:space="preserve" font-family="HelveticaNeue-Bold" font-weight="bold" font-size="39.0" fill="#FEFFFE" transform="matrix(1.00, 0.00, -0.00, -1.00, 481.1, 156.0)">c</text><text xml:space="preserve" font-family="HelveticaNeue-Bold" font-weight="bold" font-size="39.0" fill="#FEFFFE" transform="matrix(1.00, 0.00, -0.00, -1.00, 503.5, 156.0)">e</text><text xml:space="preserve" font-family="HelveticaNeue-Bold" font-weight="bold" font-size="39.0" fill="#FEFFFE" transform="matrix(1.00, 0.00, -0.00, -1.00, 525.9, 156.0)">s</text><text xml:space="preserve" font-family="HelveticaNeue-Bold" font-weight="bold" font-size="39.0" fill="#FEFFFE" transform="matrix(1.00, 0.00, -0.00, -1.00, 546.8, 156.0)">s</text><text xml:space="preserve" font-family="HelveticaNeue-Bold" font-weight="bold" font-size="39.0" fill="#FEFFFE" transform="matrix(1.00, 0.00, -0.00, -1.00, 567.8, 156.0)"> </text><text xml:space="preserve" font-family="HelveticaNeue-Bold" font-weight="bold" font-size="39.0" fill="#FEFFFE" transform="matrix(1.00, 0.00, -0.00, -1.00, 578.7, 156.0)">t</text><text xml:space="preserve" font-family="HelveticaNeue-Bold" font-weight="bold" font-size="39.0" fill="#FEFFFE" transform="matrix(1.00, 0.00, -0.00, -1.00, 592.4, 156.0)">h</text><text xml:space="preserve" font-family="HelveticaNeue-Bold" font-weight="bold" font-size="39.0" fill="#FEFFFE" transform="matrix(1.00, 0.00, -0.00, -1.00, 615.6, 156.0)">e</text><text xml:space="preserve" font-family="HelveticaNeue-Bold" font-weight="bold" font-size="39.0" fill="#FEFFFE" transform="matrix(1.00, 0.00, -0.00, -1.00, 638.0, 156.0)"> </text><text xml:space="preserve" font-family="HelveticaNeue-Bold" font-weight="bold" font-size="39.0" fill="#FEFFFE" transform="matrix(1.00, 0.00, -0.00, -1.00, 648.8, 156.0)">h</text><text xml:space="preserve" font-family="HelveticaNeue-Bold" font-weight="bold" font-size="39.0" fill="#FEFFFE" transform="matrix(1.00, 0.00, -0.00, -1.00, 672.0, 156.0)">a</text><text xml:space="preserve" font-family="HelveticaNeue-Bold" font-weight="bold" font-size="39.0" fill="#FEFFFE" transform="matrix(1.00, 0.00, -0.00, -1.00, 694.4, 156.0)">n</text><text xml:space="preserve" font-family="HelveticaNeue-Bold" font-weight="bold" font-size="39.0" fill="#FEFFFE" transform="matrix(1.00, 0.00, -0.00, -1.00, 717.5, 156.0)">d</text><text xml:space="preserve" font-family="HelveticaNeue-Bold" font-weight="bold" font-size="39.0" fill="#FEFFFE" transform="matrix(1.00, 0.00, -0.00, -1.00, 741.4, 156.0)">l</text><text xml:space="preserve" font-family="HelveticaNeue-Bold" font-weight="bold" font-size="39.0" fill="#FEFFFE" transform="matrix(1.00, 0.00, -0.00, -1.00, 751.4, 156.0)">e</text><text xml:space="preserve" font-family="HelveticaNeue-Bold" font-weight="bold" font-size="39.0" fill="#FEFFFE" transform="matrix(1.00, 0.00, -0.00, -1.00, 773.9, 156.0)">C</text><text xml:space="preserve" font-family="HelveticaNeue-Bold" font-weight="bold" font-size="39.0" fill="#FEFFFE" transform="matrix(1.00, 0.00, -0.00, -1.00, 802.8, 156.0)">h</text><text xml:space="preserve" font-family="HelveticaNeue-Bold" font-weight="bold" font-size="39.0" fill="#FEFFFE" transform="matrix(1.00, 0.00, -0.00, -1.00, 825.9, 156.0)">a</text><text xml:space="preserve" font-family="HelveticaNeue-Bold" font-weight="bold" font-size="39.0" fill="#FEFFFE" transform="matrix(1.00, 0.00, -0.00, -1.00, 848.3, 156.0)">n</text><text xml:space="preserve" font-family="HelveticaNeue-Bold" font-weight="bold" font-size="39.0" fill="#FEFFFE" transform="matrix(1.00, 0.00, -0.00, -1.00, 871.5, 156.0)">g</text><text xml:space="preserve" font-family="HelveticaNeue-Bold" font-weight="bold" font-size="39.0" fill="#FEFFFE" transform="matrix(1.00, 0.00, -0.00, -1.00, 895.3, 156.0)">e</text><text xml:space="preserve" font-family="HelveticaNeue-Bold" font-weight="bold" font-size="39.0" fill="#FEFFFE" transform="matrix(1.00, 0.00, -0.00, -1.00, 917.8, 156.0)"> </text><image xlink:href="C4DF86B87F1B3798C5EA8119503756E1.png" width="807.00" height="45.00" transform="matrix(1.00, 0.00, -0.00, -1.00, 109.0, 140.0)"></image><text xml:space="preserve" font-family="HelveticaNeue-Bold" font-weight="bold" font-size="39.0" fill="#FEFFFE" transform="matrix(1.00, 0.00, -0.00, -1.00, 111.0, 109.0)">m</text><text xml:space="preserve" font-family="HelveticaNeue-Bold" font-weight="bold" font-size="39.0" fill="#FEFFFE" transform="matrix(1.00, 0.00, -0.00, -1.00, 146.4, 109.0)">e</text><text xml:space="preserve" font-family="HelveticaNeue-Bold" font-weight="bold" font-size="39.0" fill="#FEFFFE" transform="matrix(1.00, 0.00, -0.00, -1.00, 168.8, 109.0)">t</text><text xml:space="preserve" font-family="HelveticaNeue-Bold" font-weight="bold" font-size="39.0" fill="#FEFFFE" transform="matrix(1.00, 0.00, -0.00, -1.00, 182.5, 109.0)">h</text><text xml:space="preserve" font-family="HelveticaNeue-Bold" font-weight="bold" font-size="39.0" fill="#FEFFFE" transform="matrix(1.00, 0.00, -0.00, -1.00, 205.7, 109.0)">o</text><text xml:space="preserve" font-family="HelveticaNeue-Bold" font-weight="bold" font-size="39.0" fill="#FEFFFE" transform="matrix(1.00, 0.00, -0.00, -1.00, 229.5, 109.0)">d</text><text xml:space="preserve" font-family="HelveticaNeue-Bold" font-weight="bold" font-size="39.0" fill="#FEFFFE" transform="matrix(1.00, 0.00, -0.00, -1.00, 253.4, 109.0)"> </text><text xml:space="preserve" font-family="HelveticaNeue-Bold" font-weight="bold" font-size="39.0" fill="#FEFFFE" transform="matrix(1.00, 0.00, -0.00, -1.00, 264.2, 109.0)">u</text><text xml:space="preserve" font-family="HelveticaNeue-Bold" font-weight="bold" font-size="39.0" fill="#FEFFFE" transform="matrix(1.00, 0.00, -0.00, -1.00, 287.4, 109.0)">s</text><text xml:space="preserve" font-family="HelveticaNeue-Bold" font-weight="bold" font-size="39.0" fill="#FEFFFE" transform="matrix(1.00, 0.00, -0.00, -1.00, 308.3, 109.0)">i</text><text xml:space="preserve" font-family="HelveticaNeue-Bold" font-weight="bold" font-size="39.0" fill="#FEFFFE" transform="matrix(1.00, 0.00, -0.00, -1.00, 318.4, 109.0)">n</text><text xml:space="preserve" font-family="HelveticaNeue-Bold" font-weight="bold" font-size="39.0" fill="#FEFFFE" transform="matrix(1.00, 0.00, -0.00, -1.00, 341.6, 109.0)">g</text><text xml:space="preserve" font-family="HelveticaNeue-Bold" font-weight="bold" font-size="39.0" fill="#FEFFFE" transform="matrix(1.00, 0.00, -0.00, -1.00, 365.4, 109.0)"> </text><text xml:space="preserve" font-family="HelveticaNeue-Bold" font-weight="bold" font-size="39.0" fill="#FEFFFE" transform="matrix(1.00, 0.00, -0.00, -1.00, 376.3, 109.0)">.</text><text xml:space="preserve" font-family="HelveticaNeue-Bold" font-weight="bold" font-size="39.0" fill="#FEFFFE" transform="matrix(1.00, 0.00, -0.00, -1.00, 387.1, 109.0)">i</text><text xml:space="preserve" font-family="HelveticaNeue-Bold" font-weight="bold" font-size="39.0" fill="#FEFFFE" transform="matrix(1.00, 0.00, -0.00, -1.00, 397.2, 109.0)">n</text><text xml:space="preserve" font-family="HelveticaNeue-Bold" font-weight="bold" font-size="39.0" fill="#FEFFFE" transform="matrix(1.00, 0.00, -0.00, -1.00, 420.4, 109.0)">s</text><text xml:space="preserve" font-family="HelveticaNeue-Bold" font-weight="bold" font-size="39.0" fill="#FEFFFE" transform="matrix(1.00, 0.00, -0.00, -1.00, 441.3, 109.0)">t</text><text xml:space="preserve" font-family="HelveticaNeue-Bold" font-weight="bold" font-size="39.0" fill="#FEFFFE" transform="matrix(1.00, 0.00, -0.00, -1.00, 455.1, 109.0)">a</text><text xml:space="preserve" font-family="HelveticaNeue-Bold" font-weight="bold" font-size="39.0" fill="#FEFFFE" transform="matrix(1.00, 0.00, -0.00, -1.00, 477.5, 109.0)">n</text><text xml:space="preserve" font-family="HelveticaNeue-Bold" font-weight="bold" font-size="39.0" fill="#FEFFFE" transform="matrix(1.00, 0.00, -0.00, -1.00, 500.6, 109.0)">c</text><text xml:space="preserve" font-family="HelveticaNeue-Bold" font-weight="bold" font-size="39.0" fill="#FEFFFE" transform="matrix(1.00, 0.00, -0.00, -1.00, 523.0, 109.0)">e</text><text xml:space="preserve" font-family="HelveticaNeue-Bold" font-weight="bold" font-size="39.0" fill="#FEFFFE" transform="matrix(1.00, 0.00, -0.00, -1.00, 545.4, 109.0)">(</text><text xml:space="preserve" font-family="HelveticaNeue-Bold" font-weight="bold" font-size="39.0" fill="#FEFFFE" transform="matrix(1.00, 0.00, -0.00, -1.00, 557.0, 109.0)">)</text><text xml:space="preserve" font-family="HelveticaNeue-Bold" font-weight="bold" font-size="39.0" fill="#FEFFFE" transform="matrix(1.00, 0.00, -0.00, -1.00, 568.5, 109.0)">.</text><text xml:space="preserve" font-family="HelveticaNeue-Bold" font-weight="bold" font-size="39.0" fill="#FEFFFE" transform="matrix(1.00, 0.00, -0.00, -1.00, 579.4, 109.0)"> </text><text xml:space="preserve" font-family="HelveticaNeue-Bold" font-weight="bold" font-size="39.0" fill="#FEFFFE" transform="matrix(1.00, 0.00, -0.00, -1.00, 590.3, 109.0)">B</text><text xml:space="preserve" font-family="HelveticaNeue-Bold" font-weight="bold" font-size="39.0" fill="#FEFFFE" transform="matrix(1.00, 0.00, -0.00, -1.00, 617.7, 109.0)">u</text><text xml:space="preserve" font-family="HelveticaNeue-Bold" font-weight="bold" font-size="39.0" fill="#FEFFFE" transform="matrix(1.00, 0.00, -0.00, -1.00, 640.9, 109.0)">t</text><text xml:space="preserve" font-family="HelveticaNeue-Bold" font-weight="bold" font-size="39.0" fill="#FEFFFE" transform="matrix(1.00, 0.00, -0.00, -1.00, 654.6, 109.0)"> </text><text xml:space="preserve" font-family="HelveticaNeue-Bold" font-weight="bold" font-size="39.0" fill="#FEFFFE" transform="matrix(1.00, 0.00, -0.00, -1.00, 665.5, 109.0)">w</text><text xml:space="preserve" font-family="HelveticaNeue-Bold" font-weight="bold" font-size="39.0" fill="#FEFFFE" transform="matrix(1.00, 0.00, -0.00, -1.00, 697.3, 109.0)">e</text><text xml:space="preserve" font-family="HelveticaNeue-Bold" font-weight="bold" font-size="39.0" fill="#FEFFFE" transform="matrix(1.00, 0.00, -0.00, -1.00, 719.7, 109.0)"> </text><text xml:space="preserve" font-family="HelveticaNeue-Bold" font-weight="bold" font-size="39.0" fill="#FEFFFE" transform="matrix(1.00, 0.00, -0.00, -1.00, 730.5, 109.0)">s</text><text xml:space="preserve" font-family="HelveticaNeue-Bold" font-weight="bold" font-size="39.0" fill="#FEFFFE" transform="matrix(1.00, 0.00, -0.00, -1.00, 751.5, 109.0)">h</text><text xml:space="preserve" font-family="HelveticaNeue-Bold" font-weight="bold" font-size="39.0" fill="#FEFFFE" transform="matrix(1.00, 0.00, -0.00, -1.00, 774.6, 109.0)">o</text><text xml:space="preserve" font-family="HelveticaNeue-Bold" font-weight="bold" font-size="39.0" fill="#FEFFFE" transform="matrix(1.00, 0.00, -0.00, -1.00, 798.5, 109.0)">u</text><text xml:space="preserve" font-family="HelveticaNeue-Bold" font-weight="bold" font-size="39.0" fill="#FEFFFE" transform="matrix(1.00, 0.00, -0.00, -1.00, 821.6, 109.0)">l</text><text xml:space="preserve" font-family="HelveticaNeue-Bold" font-weight="bold" font-size="39.0" fill="#FEFFFE" transform="matrix(1.00, 0.00, -0.00, -1.00, 831.7, 109.0)">d</text><text xml:space="preserve" font-family="HelveticaNeue-Bold" font-weight="bold" font-size="39.0" fill="#FEFFFE" transform="matrix(1.00, 0.00, -0.00, -1.00, 855.6, 109.0)">n</text><text xml:space="preserve" font-family="HelveticaNeue-Bold" font-weight="bold" font-size="39.0" fill="#FEFFFE" transform="matrix(1.00, 0.00, -0.00, -1.00, 878.7, 109.0)">’</text><text xml:space="preserve" font-family="HelveticaNeue-Bold" font-weight="bold" font-size="39.0" fill="#FEFFFE" transform="matrix(1.00, 0.00, -0.00, -1.00, 888.9, 109.0)">t</text><text xml:space="preserve" font-family="HelveticaNeue-Bold" font-weight="bold" font-size="39.0" fill="#FEFFFE" transform="matrix(1.00, 0.00, -0.00, -1.00, 902.6, 109.0)">.</text></g></svg>