<?xml version="1.0" encoding="UTF-8" standalone="no"?><svg xmlns="http://www.w3.org/2000/svg" xmlns:xlink="http://www.w3.org/1999/xlink" clip-rule="evenodd" stroke-miterlimit="4.00" viewBox="0 0 894 67"><desc>SVG generated by Keynote</desc><defs></defs><g transform="matrix(1.00, 0.00, -0.00, -1.00, 0.0, 67.0)"><image xlink:href="909F7A2FFBE0190568F474854104BC06.png" width="892.00" height="66.00" transform="matrix(1.00, 0.00, -0.00, -1.00, 0.0, 66.0)"></image><text xml:space="preserve" font-family="HelveticaNeue-Bold" font-weight="bold" font-size="62.1" fill="#FEFFFE" transform="matrix(1.00, 0.00, -0.00, -1.00, 4.0, 19.0)">T</text><text xml:space="preserve" font-family="HelveticaNeue-Bold" font-weight="bold" font-size="62.1" fill="#FEFFFE" transform="matrix(1.00, 0.00, -0.00, -1.00, 41.9, 19.0)">h</text><text xml:space="preserve" font-family="HelveticaNeue-Bold" font-weight="bold" font-size="62.1" fill="#FEFFFE" transform="matrix(1.00, 0.00, -0.00, -1.00, 78.7, 19.0)">i</text><text xml:space="preserve" font-family="HelveticaNeue-Bold" font-weight="bold" font-size="62.1" fill="#FEFFFE" transform="matrix(1.00, 0.00, -0.00, -1.00, 94.8, 19.0)">s</text><text xml:space="preserve" font-family="HelveticaNeue-Bold" font-weight="bold" font-size="62.1" fill="#FEFFFE" transform="matrix(1.00, 0.00, -0.00, -1.00, 128.1, 19.0)"> </text><text xml:space="preserve" font-family="HelveticaNeue-Bold" font-weight="bold" font-size="62.1" fill="#FEFFFE" transform="matrix(1.00, 0.00, -0.00, -1.00, 145.4, 19.0)">c</text><text xml:space="preserve" font-family="HelveticaNeue-Bold" font-weight="bold" font-size="62.1" fill="#FEFFFE" transform="matrix(1.00, 0.00, -0.00, -1.00, 181.0, 19.0)">a</text><text xml:space="preserve" font-family="HelveticaNeue-Bold" font-weight="bold" font-size="62.1" fill="#FEFFFE" transform="matrix(1.00, 0.00, -0.00, -1.00, 216.6, 19.0)">n</text><text xml:space="preserve" font-family="HelveticaNeue-Bold" font-weight="bold" font-size="62.1" fill="#FEFFFE" transform="matrix(1.00, 0.00, -0.00, -1.00, 253.4, 19.0)">’</text><text xml:space="preserve" font-family="HelveticaNeue-Bold" font-weight="bold" font-size="62.1" fill="#FEFFFE" transform="matrix(1.00, 0.00, -0.00, -1.00, 269.6, 19.0)">t</text><text xml:space="preserve" font-family="HelveticaNeue-Bold" font-weight="bold" font-size="62.1" fill="#FEFFFE" transform="matrix(1.00, 0.00, -0.00, -1.00, 291.4, 19.0)"> </text><text xml:space="preserve" font-family="HelveticaNeue-Bold" font-weight="bold" font-size="62.1" fill="#FEFFFE" transform="matrix(1.00, 0.00, -0.00, -1.00, 308.7, 19.0)">b</text><text xml:space="preserve" font-family="HelveticaNeue-Bold" font-weight="bold" font-size="62.1" fill="#FEFFFE" transform="matrix(1.00, 0.00, -0.00, -1.00, 346.6, 19.0)">e</text><text xml:space="preserve" font-family="HelveticaNeue-Bold" font-weight="bold" font-size="62.1" fill="#FEFFFE" transform="matrix(1.00, 0.00, -0.00, -1.00, 382.3, 19.0)"> </text><text xml:space="preserve" font-family="HelveticaNeue-Bold" font-weight="bold" font-size="62.1" fill="#FEFFFE" transform="matrix(1.00, 0.00, -0.00, -1.00, 399.5, 19.0)">t</text><text xml:space="preserve" font-family="HelveticaNeue-Bold" font-weight="bold" font-size="62.1" fill="#FEFFFE" transform="matrix(1.00, 0.00, -0.00, -1.00, 421.4, 19.0)">e</text><text xml:space="preserve" font-family="HelveticaNeue-Bold" font-weight="bold" font-size="62.1" fill="#FEFFFE" transform="matrix(1.00, 0.00, -0.00, -1.00, 457.0, 19.0)">s</text><text xml:space="preserve" font-family="HelveticaNeue-Bold" font-weight="bold" font-size="62.1" fill="#FEFFFE" transform="matrix(1.00, 0.00, -0.00, -1.00, 490.3, 19.0)">t</text><text xml:space="preserve" font-family="HelveticaNeue-Bold" font-weight="bold" font-size="62.1" fill="#FEFFFE" transform="matrix(1.00, 0.00, -0.00, -1.00, 512.2, 19.0)">i</text><text xml:space="preserve" font-family="HelveticaNeue-Bold" font-weight="bold" font-size="62.1" fill="#FEFFFE" transform="matrix(1.00, 0.00, -0.00, -1.00, 528.2, 19.0)">n</text><text xml:space="preserve" font-family="HelveticaNeue-Bold" font-weight="bold" font-size="62.1" fill="#FEFFFE" transform="matrix(1.00, 0.00, -0.00, -1.00, 565.0, 19.0)">g</text><text xml:space="preserve" font-family="HelveticaNeue-Bold" font-weight="bold" font-size="62.1" fill="#FEFFFE" transform="matrix(1.00, 0.00, -0.00, -1.00, 602.9, 19.0)"> </text><text xml:space="preserve" font-family="HelveticaNeue-Bold" font-weight="bold" font-size="62.1" fill="#FEFFFE" transform="matrix(1.00, 0.00, -0.00, -1.00, 620.2, 19.0)">a</text><text xml:space="preserve" font-family="HelveticaNeue-Bold" font-weight="bold" font-size="62.1" fill="#FEFFFE" transform="matrix(1.00, 0.00, -0.00, -1.00, 655.8, 19.0)">n</text><text xml:space="preserve" font-family="HelveticaNeue-Bold" font-weight="bold" font-size="62.1" fill="#FEFFFE" transform="matrix(1.00, 0.00, -0.00, -1.00, 692.7, 19.0)">y</text><text xml:space="preserve" font-family="HelveticaNeue-Bold" font-weight="bold" font-size="62.1" fill="#FEFFFE" transform="matrix(1.00, 0.00, -0.00, -1.00, 724.9, 19.0)">t</text><text xml:space="preserve" font-family="HelveticaNeue-Bold" font-weight="bold" font-size="62.1" fill="#FEFFFE" transform="matrix(1.00, 0.00, -0.00, -1.00, 746.7, 19.0)">h</text><text xml:space="preserve" font-family="HelveticaNeue-Bold" font-weight="bold" font-size="62.1" fill="#FEFFFE" transform="matrix(1.00, 0.00, -0.00, -1.00, 783.5, 19.0)">i</text><text xml:space="preserve" font-family="HelveticaNeue-Bold" font-weight="bold" font-size="62.1" fill="#FEFFFE" transform="matrix(1.00, 0.00, -0.00, -1.00, 799.6, 19.0)">n</text><text xml:space="preserve" font-family="HelveticaNeue-Bold" font-weight="bold" font-size="62.1" fill="#FEFFFE" transform="matrix(1.00, 0.00, -0.00, -1.00, 836.4, 19.0)">g</text><text xml:space="preserve" font-family="HelveticaNeue-Bold" font-weight="bold" font-size="62.1" fill="#FEFFFE" transform="matrix(1.00, 0.00, -0.00, -1.00, 874.3, 19.0)">!</text></g></svg>