<?xml version="1.0" encoding="UTF-8" standalone="no"?><svg xmlns="http://www.w3.org/2000/svg" xmlns:xlink="http://www.w3.org/1999/xlink" clip-rule="evenodd" stroke-miterlimit="4.00" viewBox="0 0 1024 768"><desc>SVG generated by Keynote</desc><defs></defs><g transform="matrix(1.00, 0.00, -0.00, -1.00, 0.0, 768.0)"><g><clipPath id="clip-641"><path d="M 0.0 768.0 L 1024.0 768.0 L 1024.0 0.0 L 0.0 0.0 Z M 0.0 768.0 "></path></clipPath><g clip-path="url(#clip-641)"><image xlink:href="../../94B19213-1839-4ACA-AF95-0F4D5E1D33E8/assets/2CA05975C404A6B79EB2D17D5C3EEC1C.jpeg" width="1024.00" height="768.00" transform="matrix(1.00, 0.00, -0.00, -1.00, 0.0, 768.0)"></image></g></g><g><clipPath id="clip-642"><path d="M 113.0 752.0 L 911.0 752.0 L 911.0 154.0 L 113.0 154.0 Z M 113.2 752.0 "></path></clipPath><g clip-path="url(#clip-642)"><image xlink:href="../../61C02B0B-6550-411E-9D81-39E4D10B19F6/assets/E396800A60A86D3CA637E5B8E380E196.png" width="525.00" height="540.00" transform="matrix(1.11, 0.00, -0.00, -1.11, 221.0, 752.0)"></image></g></g><g><clipPath id="clip-643"><path d="M 113.0 409.0 L 911.0 409.0 L 911.0 -190.0 L 113.0 -190.0 Z M 113.2 408.7 "></path></clipPath><g clip-path="url(#clip-643)"><image xlink:href="../../61C02B0B-6550-411E-9D81-39E4D10B19F6/assets/393E7CE96ADFE7FFA1740B23FCCA8E3B.png" width="798.00" height="42.00" transform="matrix(1.00, 0.00, -0.00, -1.02, 113.0, 131.0)"></image></g></g></g></svg>