<?xml version="1.0" encoding="UTF-8" standalone="no"?><svg xmlns="http://www.w3.org/2000/svg" xmlns:xlink="http://www.w3.org/1999/xlink" clip-rule="evenodd" stroke-miterlimit="4.00" viewBox="0 0 1024 768"><desc>SVG generated by Keynote</desc><defs></defs><g transform="matrix(1.00, 0.00, -0.00, -1.00, 0.0, 768.0)"><g><clipPath id="clip-561"><path d="M 0.0 768.0 L 1024.0 768.0 L 1024.0 0.0 L 0.0 0.0 Z M 0.0 768.0 "></path></clipPath><g clip-path="url(#clip-561)"><image xlink:href="../../94B19213-1839-4ACA-AF95-0F4D5E1D33E8/assets/2CA05975C404A6B79EB2D17D5C3EEC1C.jpeg" width="1024.00" height="768.00" transform="matrix(1.00, 0.00, -0.00, -1.00, 0.0, 768.0)"></image></g></g><g><clipPath id="clip-562"><path d="M 0.0 768.0 L 1024.0 768.0 L 1024.0 0.0 L 0.0 0.0 Z M 0.0 768.0 "></path></clipPath><g clip-path="url(#clip-562)"><image xlink:href="../../CA0EBA44-7219-4D9C-89C2-76ADB89719F8/assets/141C45BF74427B2B9FAD145A7ACDB305.png" width="590.00" height="540.00" transform="matrix(1.42, 0.00, -0.00, -1.42, 92.0, 768.0)"></image></g></g><image xlink:href="../../CA0EBA44-7219-4D9C-89C2-76ADB89719F8/assets/F96D519A6AD0F8C7B6C9FA01AD1A2BA9.png" width="729.00" height="71.00" transform="matrix(1.00, 0.00, -0.00, -1.00, 192.0, 664.7)" opacity="0.50"></image><path d="M 196.0 662.7 L 916.6 662.7 L 916.6 599.9 L 196.0 599.9 Z M 196.0 662.7 " fill="#00F933" fill-opacity="0.26"></path><path d="M 14.8 0.0 L 16.8 0.0 L 77.4 0.0 " fill="none" stroke="#198F00" stroke-width="4.00" transform="matrix(1.00, 0.00, 0.00, -1.00, 591.9, 226.0)"></path><path d="M 608.7 234.4 L 591.9 226.0 L 608.7 217.6 Z M 608.7 234.4 " fill="#198F00"></path><image xlink:href="../../CA0EBA44-7219-4D9C-89C2-76ADB89719F8/assets/34A385D85C91DDC5996D147E6869291C.png" width="729.00" height="170.00" transform="matrix(1.00, 0.00, -0.00, -1.00, 192.0, 597.3)" opacity="0.50"></image><path d="M 196.0 595.3 L 916.6 595.3 L 916.6 433.8 L 196.0 433.8 Z M 196.0 595.3 " fill="#00F933" fill-opacity="0.26"></path><path d="M 14.8 0.0 L 16.8 0.0 L 77.4 0.0 " fill="none" stroke="#198F00" stroke-width="4.00" transform="matrix(0.80, 0.60, 0.60, -0.80, 735.0, 316.8)"></path><path d="M 743.4 333.6 L 735.0 316.8 L 753.5 320.1 Z M 743.4 333.6 " fill="#198F00"></path><path d="M 0.0 385.8 C 106.8 407.6 215.3 357.1 267.3 261.3 C 312.6 178.1 305.7 76.3 249.6 0.0 " fill="none" stroke="#00FF00" stroke-width="2.00" transform="matrix(1.00, 0.00, 0.00, -1.00, 669.7, 611.6)"></path><path d="M 0.0 0.0 L 107.5 0.0 " fill="none" stroke="#00FF00" stroke-width="2.00" transform="matrix(0.71, 0.71, 0.71, -0.71, 791.9, 357.3)"></path></g></svg>