<?xml version="1.0" encoding="UTF-8" standalone="no"?><svg xmlns="http://www.w3.org/2000/svg" xmlns:xlink="http://www.w3.org/1999/xlink" clip-rule="evenodd" stroke-miterlimit="4.00" viewBox="0 0 287 46"><desc>SVG generated by Keynote</desc><defs></defs><g transform="matrix(1.00, 0.00, -0.00, -1.00, 0.0, 46.0)"><image xlink:href="19679CF12B2833A31D6BAB813270C7CC.png" width="283.00" height="43.00" transform="matrix(1.00, 0.00, -0.00, -1.00, 2.0, 45.0)"></image><text xml:space="preserve" font-family="HelveticaNeue-Bold" font-weight="bold" font-size="38.0" fill="#EAEAEA" transform="matrix(1.00, 0.00, -0.00, -1.00, 7.0, 15.0)">j</text><text xml:space="preserve" font-family="HelveticaNeue-Bold" font-weight="bold" font-size="38.0" fill="#EAEAEA" transform="matrix(1.00, 0.00, -0.00, -1.00, 17.6, 15.0)">e</text><text xml:space="preserve" font-family="HelveticaNeue-Bold" font-weight="bold" font-size="38.0" fill="#EAEAEA" transform="matrix(1.00, 0.00, -0.00, -1.00, 39.4, 15.0)">s</text><text xml:space="preserve" font-family="HelveticaNeue-Bold" font-weight="bold" font-size="38.0" fill="#EAEAEA" transform="matrix(1.00, 0.00, -0.00, -1.00, 59.8, 15.0)">t</text><text xml:space="preserve" font-family="HelveticaNeue-Bold" font-weight="bold" font-size="38.0" fill="#EAEAEA" transform="matrix(1.00, 0.00, -0.00, -1.00, 73.2, 15.0)">-</text><text xml:space="preserve" font-family="HelveticaNeue-Bold" font-weight="bold" font-size="38.0" fill="#EAEAEA" transform="matrix(1.00, 0.00, -0.00, -1.00, 88.6, 15.0)">d</text><text xml:space="preserve" font-family="HelveticaNeue-Bold" font-weight="bold" font-size="38.0" fill="#EAEAEA" transform="matrix(1.00, 0.00, -0.00, -1.00, 111.8, 15.0)">a</text><text xml:space="preserve" font-family="HelveticaNeue-Bold" font-weight="bold" font-size="38.0" fill="#EAEAEA" transform="matrix(1.00, 0.00, -0.00, -1.00, 133.7, 15.0)">s</text><text xml:space="preserve" font-family="HelveticaNeue-Bold" font-weight="bold" font-size="38.0" fill="#EAEAEA" transform="matrix(1.00, 0.00, -0.00, -1.00, 154.1, 15.0)">h</text><text xml:space="preserve" font-family="HelveticaNeue-Bold" font-weight="bold" font-size="38.0" fill="#EAEAEA" transform="matrix(1.00, 0.00, -0.00, -1.00, 176.6, 15.0)">b</text><text xml:space="preserve" font-family="HelveticaNeue-Bold" font-weight="bold" font-size="38.0" fill="#EAEAEA" transform="matrix(1.00, 0.00, -0.00, -1.00, 199.8, 15.0)">o</text><text xml:space="preserve" font-family="HelveticaNeue-Bold" font-weight="bold" font-size="38.0" fill="#EAEAEA" transform="matrix(1.00, 0.00, -0.00, -1.00, 223.0, 15.0)">a</text><text xml:space="preserve" font-family="HelveticaNeue-Bold" font-weight="bold" font-size="38.0" fill="#EAEAEA" transform="matrix(1.00, 0.00, -0.00, -1.00, 244.8, 15.0)">r</text><text xml:space="preserve" font-family="HelveticaNeue-Bold" font-weight="bold" font-size="38.0" fill="#EAEAEA" transform="matrix(1.00, 0.00, -0.00, -1.00, 258.9, 15.0)">d</text></g></svg>